<?xml version="1.0" encoding="UTF-8" standalone="no"?>
<!-- Created with Inkscape (http://www.inkscape.org/) -->

<svg
   width="150.16751mm"
   height="84.699692mm"
   viewBox="0 0 150.16751 84.699692"
   version="1.1"
   id="svg5"
   xml:space="preserve"
   inkscape:version="1.2.2 (b0a8486541, 2022-12-01)"
   sodipodi:docname="teleop.svg"
   inkscape:export-filename="teleop.png"
   inkscape:export-xdpi="96.074097"
   inkscape:export-ydpi="96.074097"
   xmlns:inkscape="http://www.inkscape.org/namespaces/inkscape"
   xmlns:sodipodi="http://sodipodi.sourceforge.net/DTD/sodipodi-0.dtd"
   xmlns="http://www.w3.org/2000/svg"
   xmlns:svg="http://www.w3.org/2000/svg"><sodipodi:namedview
     id="namedview7"
     pagecolor="#ffffff"
     bordercolor="#111111"
     borderopacity="1"
     inkscape:showpageshadow="0"
     inkscape:pageopacity="0"
     inkscape:pagecheckerboard="1"
     inkscape:deskcolor="#d1d1d1"
     inkscape:document-units="mm"
     showgrid="false"
     inkscape:zoom="1.6819304"
     inkscape:cx="279.44081"
     inkscape:cy="149.82784"
     inkscape:current-layer="g404" /><defs
     id="defs2" /><g
     inkscape:label="Layer 1"
     inkscape:groupmode="layer"
     id="layer1"
     transform="translate(-30.976436,-135.35039)"><g
       id="g404"><path
         id="rect557"
         style="fill:#ffd42a;fill-opacity:1;stroke-width:0.865"
         d="m 71.148112,135.35039 v 0.005 a 40.830605,42.362743 0 0 0 -27.405562,11.58276 40.830605,42.362743 0 0 0 -1.592151,59.8873 40.830605,42.362743 0 0 0 57.169637,2.14509 h 13.482894 a 40.830605,42.362743 0 0 0 55.57491,-0.49351 l -10.80968,-11.85199 a 7.8147225,8.0564718 0 0 1 -5.54333,2.38538 7.8147225,8.0564718 0 0 1 -7.81451,-8.05635 7.8147225,8.0564718 0 0 1 2.66444,-6.05286 7.8147225,8.0564718 0 0 1 5.15007,-2.00402 7.8147225,8.0564718 0 0 1 7.81503,8.05688 7.8147225,8.0564718 0 0 1 -2.2717,5.67097 l 10.81019,11.85147 a 40.830605,42.362743 0 0 0 1.59164,-59.88678 40.830605,42.362743 0 0 0 -27.84637,-13.16406 v -0.0754 z m -5.993949,21.29586 h 10.468611 c 1.360603,0 2.456181,1.09557 2.456181,2.45618 v 12.29641 h 12.296407 c 1.360603,0 2.455664,1.09558 2.455664,2.45618 v 10.46861 c 0,1.36061 -1.095061,2.45618 -2.455664,2.45618 H 78.078955 v 12.29641 c 0,1.36061 -1.095578,2.45566 -2.456181,2.45566 H 65.154163 c -1.360603,0 -2.456181,-1.09505 -2.456181,-2.45566 V 186.77981 H 50.401575 c -1.360603,0 -2.456181,-1.09557 -2.456181,-2.45618 v -10.46861 c 0,-1.3606 1.095578,-2.45618 2.456181,-2.45618 h 12.296407 v -12.29641 c 0,-1.36061 1.095578,-2.45618 2.456181,-2.45618 z m 67.161787,6.45646 a 7.8147225,8.0564718 0 0 1 7.81503,8.05635 7.8147225,8.0564718 0 0 1 -7.81503,8.05687 7.8147225,8.0564718 0 0 1 -7.81451,-8.05687 7.8147225,8.0564718 0 0 1 7.81451,-8.05635 z m 19.70888,0 a 7.8147225,8.0564718 0 0 1 7.81503,8.05635 7.8147225,8.0564718 0 0 1 -7.81503,8.05687 7.8147225,8.0564718 0 0 1 -7.81451,-8.05687 7.8147225,8.0564718 0 0 1 7.81451,-8.05635 z m -19.70888,19.79465 a 7.8147225,8.0564718 0 0 1 7.81503,8.05688 7.8147225,8.0564718 0 0 1 -7.81503,8.05635 7.8147225,8.0564718 0 0 1 -7.81451,-8.05635 7.8147225,8.0564718 0 0 1 7.81451,-8.05688 z" /></g></g></svg>
