<?xml version="1.0" encoding="UTF-8" standalone="no"?>
<svg
   xmlns:dc="http://purl.org/dc/elements/1.1/"
   xmlns:cc="http://creativecommons.org/ns#"
   xmlns:rdf="http://www.w3.org/1999/02/22-rdf-syntax-ns#"
   xmlns:svg="http://www.w3.org/2000/svg"
   xmlns="http://www.w3.org/2000/svg"
   xmlns:sodipodi="http://sodipodi.sourceforge.net/DTD/sodipodi-0.dtd"
   xmlns:inkscape="http://www.inkscape.org/namespaces/inkscape"
   aria-label="Loading..."
   class="  By4nA"
   viewBox="0 0 100 100"
   version="1.1"
   id="svg3817"
   sodipodi:docname="loading_spinner.svg"
   inkscape:version="0.92.4 (5da689c313, 2019-01-14)">
  <metadata
     id="metadata3823">
    <rdf:RDF>
      <cc:Work
         rdf:about="">
        <dc:format>image/svg+xml</dc:format>
        <dc:type
           rdf:resource="http://purl.org/dc/dcmitype/StillImage" />
        <dc:title></dc:title>
      </cc:Work>
    </rdf:RDF>
  </metadata>
  <defs
     id="defs3821" />
  <sodipodi:namedview
     pagecolor="#ffffff"
     bordercolor="#666666"
     borderopacity="1"
     objecttolerance="10"
     gridtolerance="10"
     guidetolerance="10"
     inkscape:pageopacity="0"
     inkscape:pageshadow="2"
     inkscape:window-width="640"
     inkscape:window-height="480"
     id="namedview3819"
     showgrid="false"
     inkscape:zoom="2.36"
     inkscape:cx="50"
     inkscape:cy="50"
     inkscape:window-x="161"
     inkscape:window-y="162"
     inkscape:window-maximized="0"
     inkscape:current-layer="svg3817" />
  <rect
     fill="#555555"
     height="6"
     opacity="0"
     rx="3"
     ry="3"
     transform="rotate(-90 50 50)"
     width="25"
     x="72"
     y="47"
     id="rect3793" />
  <rect
     fill="#555555"
     height="6"
     opacity="0.08333333333333333"
     rx="3"
     ry="3"
     transform="rotate(-60 50 50)"
     width="25"
     x="72"
     y="47"
     id="rect3795" />
  <rect
     fill="#555555"
     height="6"
     opacity="0.16666666666666666"
     rx="3"
     ry="3"
     transform="rotate(-30 50 50)"
     width="25"
     x="72"
     y="47"
     id="rect3797" />
  <rect
     fill="#555555"
     height="6"
     opacity="0.25"
     rx="3"
     ry="3"
     transform="rotate(0 50 50)"
     width="25"
     x="72"
     y="47"
     id="rect3799" />
  <rect
     fill="#555555"
     height="6"
     opacity="0.3333333333333333"
     rx="3"
     ry="3"
     transform="rotate(30 50 50)"
     width="25"
     x="72"
     y="47"
     id="rect3801" />
  <rect
     fill="#555555"
     height="6"
     opacity="0.4166666666666667"
     rx="3"
     ry="3"
     transform="rotate(60 50 50)"
     width="25"
     x="72"
     y="47"
     id="rect3803" />
  <rect
     fill="#555555"
     height="6"
     opacity="0.5"
     rx="3"
     ry="3"
     transform="rotate(90 50 50)"
     width="25"
     x="72"
     y="47"
     id="rect3805" />
  <rect
     fill="#555555"
     height="6"
     opacity="0.5833333333333334"
     rx="3"
     ry="3"
     transform="rotate(120 50 50)"
     width="25"
     x="72"
     y="47"
     id="rect3807" />
  <rect
     fill="#555555"
     height="6"
     opacity="0.6666666666666666"
     rx="3"
     ry="3"
     transform="rotate(150 50 50)"
     width="25"
     x="72"
     y="47"
     id="rect3809" />
  <rect
     fill="#555555"
     height="6"
     opacity="0.75"
     rx="3"
     ry="3"
     transform="rotate(180 50 50)"
     width="25"
     x="72"
     y="47"
     id="rect3811" />
  <rect
     fill="#555555"
     height="6"
     opacity="0.8333333333333334"
     rx="3"
     ry="3"
     transform="rotate(210 50 50)"
     width="25"
     x="72"
     y="47"
     id="rect3813" />
  <rect
     fill="#555555"
     height="6"
     opacity="0.9166666666666666"
     rx="3"
     ry="3"
     transform="rotate(240 50 50)"
     width="25"
     x="72"
     y="47"
     id="rect3815" />
</svg>
