<?xml version="1.0" encoding="UTF-8" standalone="no"?>
<!-- Generator: Adobe Illustrator 16.0.0, SVG Export Plug-In . SVG Version: 6.00 Build 0)  -->

<svg
   xmlns:dc="http://purl.org/dc/elements/1.1/"
   xmlns:cc="http://creativecommons.org/ns#"
   xmlns:rdf="http://www.w3.org/1999/02/22-rdf-syntax-ns#"
   xmlns:svg="http://www.w3.org/2000/svg"
   xmlns="http://www.w3.org/2000/svg"
   xmlns:sodipodi="http://sodipodi.sourceforge.net/DTD/sodipodi-0.dtd"
   xmlns:inkscape="http://www.inkscape.org/namespaces/inkscape"
   version="1.1"
   id="Capa_1"
   x="0px"
   y="0px"
   width="32"
   height="32"
   viewBox="0 0 32.000001 32"
   xml:space="preserve"
   sodipodi:docname="pencil.svg"
   inkscape:version="0.92.1 r15371"><metadata
     id="metadata41"><rdf:RDF><cc:Work
         rdf:about=""><dc:format>image/svg+xml</dc:format><dc:type
           rdf:resource="http://purl.org/dc/dcmitype/StillImage" /><dc:title /></cc:Work></rdf:RDF></metadata><defs
     id="defs39" /><sodipodi:namedview
     pagecolor="#ffffff"
     bordercolor="#666666"
     borderopacity="1"
     objecttolerance="10"
     gridtolerance="10"
     guidetolerance="10"
     inkscape:pageopacity="0"
     inkscape:pageshadow="2"
     inkscape:window-width="1553"
     inkscape:window-height="876"
     id="namedview37"
     showgrid="false"
     inkscape:zoom="14.75"
     inkscape:cx="23.502732"
     inkscape:cy="8.4062609"
     inkscape:window-x="47"
     inkscape:window-y="24"
     inkscape:window-maximized="1"
     inkscape:current-layer="Capa_1" /><path
     sodipodi:nodetypes="cccccsscccccccc"
     style="fill:#ffffff;stroke-width:0.06249985"
     d="m 6.4257955,9.2558205 c -0.714872,0.03318 -1.421871,0.316436 -1.96487,0.8593735 -1.171872,1.171872 -1.156246,3.056618 0.01176,4.228491 l 16.2636395,16.26271 c 0,0 0.21875,0.249 0.337874,0.368187 1.367184,1.367184 3.583992,1.367184 4.951176,0 l 4.949239,-4.949239 c 1.367184,-1.367184 1.367184,-3.584927 0,-4.950174 -0.119125,-0.121126 -0.238312,-0.236313 -0.369125,-0.335937 L 14.339902,4.4765815 c -1.167997,-1.169934 -3.054741,-1.185559 -4.222676,-0.0195 -0.5468745,0.546873 -0.8281245,1.249997 -0.8632485,1.97062 -0.718749,0.03519 -1.421872,0.316437 -1.964871,0.857498 -0.546936,0.548748 -0.828185,1.249934 -0.863311,1.97062 z"
     id="path5052"
     inkscape:connector-curvature="0" /><g
     id="g4"
     transform="matrix(-0.06249985,0,0,-0.06249985,31.999985,31.999954)"><path
       d="m 409.188,363.907 c 11.438,-0.531 22.75,-5.063 31.438,-13.75 18.75,-18.75 18.5,-48.906 -0.188,-67.656 L 180.219,22.297 c 0,0 -3.5,-3.984 -5.406,-5.891 -21.875,-21.875 -57.344,-21.875 -79.219,0 L 16.406,95.594 c -21.875,21.875 -21.875,57.359 0,79.203 1.906,1.938 3.813,3.781 5.906,5.375 l 260.25,260.203 c 18.688,18.719 48.876,18.969 67.563,0.312 8.75,-8.75 13.25,-20 13.812,-31.53 11.5,-0.563 22.75,-5.063 31.438,-13.72 8.751,-8.78 13.251,-19.999 13.813,-31.53 z M 304.876,418.063 89.938,203.094 112.563,180.453 327.501,395.406 c 6.25,6.25 6.25,16.375 0,22.656 -6.25,6.251 -16.375,6.22 -22.625,10e-4 z m 45.25,-45.281 -214.938,-214.953 22.625,-22.641 214.938,214.969 c 6.25,6.188 6.25,16.375 0,22.656 -6.25,6.219 -16.375,6.156 -22.625,-0.031 z m 45.25,-45.25 -214.938,-214.97 22.625,-22.625 214.938,215 c 6.313,6.188 6.25,16.344 0,22.594 -6.25,6.25 -16.313,6.219 -22.625,10e-4 z m -45.563,151.531 c 8.375,-3.875 16.22,-9.031 22.938,-15.75 7.875,-7.875 13.906,-17.22 17.875,-27.47 10.188,-3.938 19.531,-9.969 27.406,-17.812 7.844,-7.875 13.875,-17.22 17.812,-27.438 10.22,-3.938 19.563,-9.969 27.406,-17.812 6.875,-6.875 11.969,-14.781 15.781,-23.156 L 512.001,512 Z"
       id="path2"
       inkscape:connector-curvature="0" /></g><g
     id="g6"
     transform="translate(0,-480)" /><g
     id="g8"
     transform="translate(0,-480)" /><g
     id="g10"
     transform="translate(0,-480)" /><g
     id="g12"
     transform="translate(0,-480)" /><g
     id="g14"
     transform="translate(0,-480)" /><g
     id="g16"
     transform="translate(0,-480)" /><g
     id="g18"
     transform="translate(0,-480)" /><g
     id="g20"
     transform="translate(0,-480)" /><g
     id="g22"
     transform="translate(0,-480)" /><g
     id="g24"
     transform="translate(0,-480)" /><g
     id="g26"
     transform="translate(0,-480)" /><g
     id="g28"
     transform="translate(0,-480)" /><g
     id="g30"
     transform="translate(0,-480)" /><g
     id="g32"
     transform="translate(0,-480)" /><g
     id="g34"
     transform="translate(0,-480)" /></svg>