<?xml version="1.0" encoding="UTF-8" standalone="no"?>
<!-- Uploaded to: SVG Repo, www.svgrepo.com, Generator: SVG Repo Mixer Tools -->

<svg
   height="800px"
   width="800px"
   version="1.1"
   id="Layer_1"
   viewBox="0 0 512 512"
   xml:space="preserve"
   sodipodi:docname="fuel.svg"
   inkscape:export-filename="fuel.png"
   inkscape:export-xdpi="3"
   inkscape:export-ydpi="3"
   inkscape:version="1.2.2 (b0a8486541, 2022-12-01)"
   xmlns:inkscape="http://www.inkscape.org/namespaces/inkscape"
   xmlns:sodipodi="http://sodipodi.sourceforge.net/DTD/sodipodi-0.dtd"
   xmlns="http://www.w3.org/2000/svg"
   xmlns:svg="http://www.w3.org/2000/svg"><defs
   id="defs189" /><sodipodi:namedview
   id="namedview187"
   pagecolor="#ffffff"
   bordercolor="#666666"
   borderopacity="1.0"
   inkscape:showpageshadow="2"
   inkscape:pageopacity="0.0"
   inkscape:pagecheckerboard="0"
   inkscape:deskcolor="#d1d1d1"
   showgrid="false"
   inkscape:zoom="2.0875"
   inkscape:cx="400"
   inkscape:cy="400"
   inkscape:window-width="3840"
   inkscape:window-height="2137"
   inkscape:window-x="0"
   inkscape:window-y="0"
   inkscape:window-maximized="1"
   inkscape:current-layer="Layer_1" />
<g
   id="g168">
	<circle
   style="fill:#e4db32;fill-opacity:1"
   cx="256"
   cy="256"
   r="245.801"
   id="circle162" />
	<path
   style="fill:#e4db32;fill-opacity:1"
   d="M11.219,256c0-37.177,109.592-67.315,244.781-67.315S500.781,218.823,500.781,256"
   id="path164" />
	<path
   style="fill:#e4db32;fill-opacity:1;stroke-width:0.99900472;stroke-dasharray:none"
   d="M500.781,256c0,37.177-109.592,67.315-244.781,67.315S11.219,293.177,11.219,256"
   id="path166" />
</g>
<g
   id="g184">
	<path
   style="fill:#505216;fill-opacity:1"
   d="M437.019,74.98C388.667,26.628,324.381,0,256,0C187.62,0,123.333,26.628,74.98,74.98S0,187.62,0,256   s26.628,132.667,74.98,181.02S187.62,512,256,512c68.381,0,132.667-26.628,181.019-74.98C485.372,388.667,512,324.38,512,256   S485.372,123.333,437.019,74.98z M256,20.398c121.116,0,221.162,91.867,234.156,209.576c-1.273,0.438-2.479,1.134-3.538,2.097   c-4.167,3.789-4.474,10.24-0.684,14.407c3.084,3.391,4.648,6.595,4.648,9.521c0,9.277-16.813,24.733-64.199,37.765   C381.004,306.243,320.496,313.116,256,313.116s-125.005-6.872-170.382-19.351c-47.387-13.032-64.2-28.487-64.2-37.765   c0-2.926,1.564-6.13,4.648-9.522c3.789-4.167,3.483-10.618-0.685-14.407c-1.059-0.963-2.265-1.658-3.537-2.096   C34.838,112.266,134.884,20.398,256,20.398z M256,491.602c-118.638,0-217.058-88.149-233.25-202.388   c13.289,9.212,32.54,17.366,57.459,24.219c47.089,12.95,109.519,20.081,175.79,20.081s128.702-7.131,175.79-20.081   c24.92-6.853,44.17-15.008,57.458-24.219C473.058,403.453,374.638,491.602,256,491.602z"
   id="path170" />
	<path
   style="fill:#505216;fill-opacity:1"
   d="M274.804,199.082c12.638,0.267,25.261,0.81,37.519,1.615c0.228,0.015,0.453,0.022,0.678,0.022   c5.328,0,9.814-4.139,10.168-9.532c0.368-5.621-3.889-10.476-9.509-10.845c-12.558-0.824-25.487-1.381-38.426-1.654   c-0.073-0.002-0.147-0.002-0.219-0.002c-5.533,0-10.076,4.425-10.193,9.984C264.703,194.302,269.172,198.963,274.804,199.082z"
   id="path172" />
	<path
   style="fill:#505216;fill-opacity:1"
   d="M349.673,204.056c12.835,1.485,25.284,3.291,37.004,5.369c0.602,0.106,1.2,0.158,1.792,0.158   c4.853,0,9.155-3.476,10.031-8.42c0.983-5.546-2.716-10.84-8.263-11.823c-12.121-2.148-24.98-4.014-38.219-5.546   c-5.594-0.65-10.655,3.364-11.304,8.959C340.066,198.348,344.076,203.409,349.673,204.056z"
   id="path174" />
	<path
   style="fill:#505216;fill-opacity:1"
   d="M422.985,217.32c13.175,3.482,24.834,7.362,34.652,11.532c1.3,0.553,2.653,0.814,3.982,0.814   c3.97,0,7.743-2.332,9.392-6.214c2.202-5.184-0.216-11.172-5.401-13.374c-10.712-4.55-23.3-8.748-37.413-12.478   c-5.442-1.44-11.028,1.808-12.467,7.255C414.292,210.298,417.54,215.88,422.985,217.32z"
   id="path176" />
	<path
   style="fill:#505216;fill-opacity:1"
   d="M50.419,229.65c1.329,0,2.68-0.261,3.981-0.813c9.82-4.168,21.48-8.046,34.653-11.526   c5.446-1.439,8.695-7.02,7.256-12.466c-1.439-5.445-7.018-8.695-12.466-7.256c-14.112,3.728-26.698,7.924-37.413,12.472   c-5.185,2.201-7.605,8.188-5.404,13.373C42.674,227.318,46.448,229.65,50.419,229.65z"
   id="path178" />
	<path
   style="fill:#505216;fill-opacity:1"
   d="M199.032,200.716c0.224,0,0.45-0.007,0.677-0.022c12.258-0.804,24.882-1.346,37.519-1.614   c5.632-0.118,10.1-4.78,9.982-10.412c-0.118-5.632-4.795-10.137-10.411-9.981c-12.939,0.273-25.865,0.829-38.423,1.652   c-5.621,0.368-9.879,5.224-9.51,10.845C189.218,196.578,193.702,200.716,199.032,200.716z"
   id="path180" />
	<path
   style="fill:#505216;fill-opacity:1"
   d="M123.566,209.577c0.591,0,1.19-0.051,1.792-0.158c11.715-2.077,24.164-3.882,37.002-5.367   c5.595-0.647,9.607-5.707,8.96-11.304c-0.647-5.595-5.705-9.615-11.304-8.96c-13.243,1.531-26.101,3.396-38.218,5.544   c-5.546,0.983-9.246,6.277-8.263,11.823C114.412,206.101,118.714,209.577,123.566,209.577z"
   id="path182" />
</g>
</svg>
